<svg xmlns="http://www.w3.org/2000/svg" width="1880" height="247" viewBox="0 0 1880 247">
  <g fill="#000000" fill-rule="evenodd">
    <path d="M 1739 88 L 1733 92 L 1731 97 L 1730 112 L 1729 167 L 1730 170 L 1735 175 L 1739 177 L 1745 177 L 1750 175 L 1753 172 L 1755 168 L 1757 136 L 1757 95 L 1756 93 L 1752 89 L 1750 88 Z"/>
    <path d="M 1796 86 L 1794 88 L 1792 88 L 1785 93 L 1781 97 L 1774 107 L 1773 111 L 1770 116 L 1769 124 L 1769 138 L 1772 150 L 1774 152 L 1776 157 L 1781 163 L 1789 170 L 1795 173 L 1797 173 L 1799 175 L 1804 176 L 1822 176 L 1828 175 L 1834 172 L 1836 170 L 1839 169 L 1843 166 L 1848 161 L 1855 150 L 1855 147 L 1857 145 L 1859 135 L 1859 125 L 1857 114 L 1853 105 L 1849 99 L 1838 89 L 1832 86 L 1830 86 L 1827 84 L 1823 83 L 1806 83 Z M 1811 107 L 1817 107 L 1819 109 L 1823 110 L 1828 115 L 1829 118 L 1831 120 L 1832 124 L 1832 136 L 1830 139 L 1830 142 L 1825 148 L 1822 150 L 1819 150 L 1817 152 L 1810 152 L 1804 149 L 1798 143 L 1795 133 L 1797 119 L 1803 111 Z"/>
    <path d="M 1619 81 L 1613 82 L 1610 84 L 1607 84 L 1602 88 L 1600 88 L 1587 101 L 1585 106 L 1583 108 L 1580 119 L 1580 139 L 1582 146 L 1584 149 L 1584 151 L 1590 160 L 1597 167 L 1607 173 L 1614 175 L 1620 176 L 1630 176 L 1636 175 L 1647 171 L 1653 167 L 1664 155 L 1667 149 L 1670 138 L 1670 118 L 1668 111 L 1666 108 L 1666 106 L 1664 104 L 1663 101 L 1656 93 L 1646 85 L 1640 84 L 1635 81 Z M 1621 106 L 1629 106 L 1635 109 L 1638 112 L 1642 118 L 1643 121 L 1644 135 L 1638 145 L 1635 148 L 1628 151 L 1622 151 L 1617 149 L 1610 142 L 1607 134 L 1607 121 L 1611 113 L 1615 109 Z"/>
    <path d="M 1310 78 L 1300 80 L 1297 82 L 1295 82 L 1293 84 L 1291 84 L 1284 89 L 1274 100 L 1274 102 L 1271 105 L 1267 120 L 1267 135 L 1271 150 L 1274 153 L 1275 156 L 1278 160 L 1287 168 L 1290 169 L 1294 172 L 1300 173 L 1303 175 L 1322 175 L 1330 173 L 1336 170 L 1338 168 L 1341 167 L 1350 158 L 1353 154 L 1355 150 L 1355 148 L 1357 145 L 1359 138 L 1359 117 L 1356 107 L 1353 101 L 1349 95 L 1339 86 L 1333 82 L 1327 80 L 1317 78 Z M 1310 104 L 1318 104 L 1323 107 L 1328 112 L 1332 120 L 1332 135 L 1326 144 L 1319 150 L 1309 150 L 1305 148 L 1299 142 L 1295 134 L 1295 120 L 1298 113 L 1305 106 Z"/>
    <path d="M 230 80 L 228 82 L 226 82 L 220 86 L 214 92 L 214 94 L 211 96 L 206 105 L 206 109 L 204 112 L 202 120 L 202 136 L 204 140 L 204 144 L 206 150 L 208 154 L 214 162 L 219 167 L 229 174 L 241 177 L 256 177 L 262 175 L 271 170 L 273 186 L 273 207 L 274 217 L 281 225 L 284 226 L 294 226 L 296 225 L 300 221 L 303 215 L 303 194 L 301 166 L 301 128 L 300 95 L 299 86 L 298 84 L 293 79 L 290 78 L 281 78 L 279 79 L 273 85 L 270 82 L 267 81 L 265 79 L 256 76 L 243 76 L 235 78 L 232 80 Z M 248 103 L 256 103 L 259 105 L 261 105 L 268 112 L 268 114 L 271 119 L 271 135 L 270 138 L 268 140 L 267 143 L 262 148 L 258 150 L 245 150 L 239 146 L 236 143 L 234 139 L 234 137 L 232 134 L 231 123 L 233 116 L 235 114 L 236 111 L 242 105 Z"/>
    <path d="M 421 72 L 406 76 L 397 84 L 389 97 L 389 110 L 392 118 L 399 126 L 403 129 L 405 129 L 407 131 L 409 131 L 417 135 L 420 135 L 423 137 L 426 137 L 428 139 L 430 139 L 434 143 L 434 148 L 430 152 L 428 153 L 419 153 L 411 150 L 403 143 L 399 141 L 393 141 L 387 144 L 384 149 L 384 159 L 388 165 L 395 170 L 403 174 L 416 177 L 433 177 L 440 175 L 443 173 L 445 173 L 447 171 L 450 170 L 457 163 L 461 156 L 462 152 L 462 140 L 461 135 L 457 128 L 450 121 L 438 115 L 427 112 L 423 110 L 421 108 L 418 107 L 417 105 L 417 100 L 422 96 L 431 96 L 438 99 L 442 103 L 444 103 L 446 105 L 453 105 L 455 103 L 457 103 L 461 97 L 461 88 L 454 80 L 443 74 L 434 72 Z"/>
    <path d="M 328 72 L 324 74 L 319 79 L 318 81 L 318 114 L 320 132 L 320 161 L 323 169 L 326 172 L 332 175 L 339 175 L 346 171 L 349 168 L 350 165 L 350 144 L 348 84 L 347 80 L 342 74 L 337 72 Z"/>
    <path d="M 169 72 L 166 74 L 164 74 L 162 76 L 159 81 L 158 86 L 160 165 L 162 169 L 167 173 L 170 174 L 179 174 L 183 173 L 187 169 L 189 165 L 188 96 L 189 84 L 187 81 L 187 79 L 178 72 Z"/>
    <path d="M 657 76 L 652 80 L 647 88 L 647 96 L 651 102 L 653 103 L 665 103 L 667 102 L 671 98 L 676 95 L 679 94 L 688 94 L 691 95 L 697 101 L 698 103 L 698 110 L 696 112 L 673 112 L 659 115 L 651 120 L 643 129 L 641 133 L 639 141 L 640 152 L 642 155 L 642 157 L 644 161 L 648 166 L 653 170 L 657 171 L 660 173 L 665 173 L 670 175 L 677 175 L 686 173 L 689 171 L 693 170 L 700 165 L 702 169 L 710 175 L 718 175 L 722 173 L 727 167 L 727 101 L 724 92 L 717 80 L 715 78 L 712 77 L 709 74 L 705 72 L 703 72 L 700 70 L 690 68 L 679 68 L 670 70 L 668 72 L 665 72 L 661 74 L 659 76 Z M 668 145 L 668 140 L 669 137 L 672 134 L 678 131 L 696 131 L 698 133 L 699 136 L 694 146 L 689 150 L 687 150 L 685 152 L 677 152 L 673 149 L 671 149 Z"/>
    <path d="M 1427 66 L 1414 66 L 1406 69 L 1404 72 L 1402 72 L 1397 77 L 1395 72 L 1390 68 L 1383 66 L 1380 66 L 1378 68 L 1376 68 L 1370 74 L 1369 78 L 1369 91 L 1371 108 L 1371 125 L 1373 156 L 1374 163 L 1379 170 L 1383 172 L 1389 173 L 1392 171 L 1395 171 L 1401 165 L 1402 162 L 1402 147 L 1400 127 L 1400 112 L 1401 107 L 1405 101 L 1413 95 L 1418 94 L 1428 94 L 1433 90 L 1436 86 L 1437 83 L 1437 77 L 1436 73 L 1431 68 Z"/>
    <path d="M 860 70 L 854 74 L 843 85 L 836 99 L 834 108 L 834 128 L 836 135 L 838 138 L 838 141 L 840 143 L 840 145 L 844 151 L 853 160 L 859 164 L 863 165 L 865 167 L 872 169 L 895 169 L 899 167 L 903 167 L 908 164 L 910 164 L 913 161 L 916 160 L 923 153 L 925 147 L 925 144 L 923 140 L 917 134 L 907 134 L 902 138 L 901 140 L 899 140 L 894 144 L 885 145 L 877 144 L 871 140 L 866 135 L 864 130 L 865 127 L 876 127 L 888 125 L 901 125 L 918 122 L 922 118 L 924 112 L 924 105 L 922 96 L 920 90 L 917 86 L 917 84 L 906 73 L 903 72 L 901 70 L 897 68 L 891 66 L 873 66 L 869 68 L 865 68 L 862 70 Z M 863 107 L 863 103 L 866 98 L 873 91 L 877 90 L 885 90 L 887 91 L 894 97 L 894 99 L 896 102 L 895 105 L 893 106 L 878 106 L 869 108 Z"/>
    <path d="M 1106 70 L 1101 68 L 1093 68 L 1090 69 L 1085 74 L 1079 87 L 1076 91 L 1076 93 L 1074 96 L 1074 98 L 1072 100 L 1072 102 L 1070 104 L 1070 106 L 1066 114 L 1064 116 L 1063 120 L 1060 120 L 1059 118 L 1059 115 L 1057 111 L 1057 108 L 1055 105 L 1055 101 L 1049 85 L 1049 82 L 1045 69 L 1037 62 L 1027 62 L 1023 64 L 1018 69 L 1017 72 L 1017 79 L 1018 84 L 1020 87 L 1023 99 L 1025 102 L 1025 104 L 1028 111 L 1028 113 L 1030 116 L 1031 122 L 1034 128 L 1036 135 L 1036 138 L 1038 141 L 1042 153 L 1043 159 L 1041 163 L 1039 165 L 1038 169 L 1035 172 L 1034 176 L 1032 177 L 1030 180 L 1026 182 L 1018 182 L 1013 184 L 1008 190 L 1008 200 L 1010 203 L 1017 209 L 1035 209 L 1038 208 L 1047 203 L 1055 196 L 1063 180 L 1065 178 L 1067 173 L 1069 171 L 1069 169 L 1071 167 L 1072 163 L 1077 153 L 1079 151 L 1079 149 L 1082 145 L 1082 143 L 1087 133 L 1089 131 L 1093 123 L 1093 121 L 1095 119 L 1101 107 L 1101 105 L 1103 103 L 1105 98 L 1107 96 L 1107 94 L 1109 92 L 1109 89 L 1111 87 L 1111 76 Z"/>
    <path d="M 1001 56 L 997 55 L 986 55 L 981 56 L 973 60 L 968 64 L 966 62 L 966 60 L 963 56 L 958 53 L 947 53 L 939 60 L 938 62 L 936 114 L 937 121 L 936 151 L 939 157 L 942 160 L 944 160 L 947 162 L 955 162 L 961 159 L 963 157 L 966 151 L 966 118 L 967 103 L 969 100 L 969 97 L 971 93 L 977 87 L 981 85 L 985 84 L 1000 84 L 1003 83 L 1005 81 L 1009 73 L 1009 67 L 1007 61 Z"/>
    <path d="M 1743 46 L 1740 48 L 1738 48 L 1732 54 L 1731 56 L 1731 66 L 1732 70 L 1734 73 L 1741 77 L 1750 77 L 1753 76 L 1758 72 L 1761 66 L 1761 58 L 1760 55 L 1756 50 L 1748 46 Z"/>
    <path d="M 1469 36 L 1465 38 L 1460 43 L 1459 46 L 1459 63 L 1458 65 L 1450 66 L 1449 68 L 1446 69 L 1442 76 L 1442 80 L 1444 85 L 1448 89 L 1458 91 L 1459 93 L 1458 111 L 1458 134 L 1460 148 L 1464 156 L 1471 164 L 1481 169 L 1489 170 L 1501 169 L 1503 167 L 1505 167 L 1510 162 L 1512 158 L 1512 152 L 1511 149 L 1507 144 L 1504 143 L 1493 143 L 1491 142 L 1488 138 L 1487 135 L 1487 93 L 1488 91 L 1501 90 L 1504 89 L 1509 84 L 1510 81 L 1510 74 L 1507 69 L 1503 66 L 1489 66 L 1487 64 L 1487 45 L 1481 38 L 1477 36 Z"/>
    <path d="M 1694 27 L 1688 30 L 1685 33 L 1685 35 L 1683 38 L 1683 167 L 1685 171 L 1690 175 L 1692 175 L 1695 177 L 1700 177 L 1705 175 L 1709 171 L 1709 169 L 1711 167 L 1712 159 L 1713 40 L 1711 34 L 1705 28 L 1703 27 Z"/>
    <path d="M 402 29 L 397 27 L 390 27 L 385 29 L 381 32 L 380 38 L 378 42 L 378 46 L 374 53 L 374 55 L 370 59 L 367 64 L 367 70 L 368 73 L 372 77 L 376 78 L 382 78 L 389 75 L 390 72 L 397 65 L 399 62 L 401 57 L 403 55 L 406 49 L 407 45 L 407 37 L 405 32 Z"/>
    <path d="M 748 29 L 744 33 L 742 37 L 743 75 L 742 95 L 744 124 L 744 164 L 746 170 L 755 177 L 765 176 L 767 175 L 771 171 L 773 166 L 773 135 L 776 133 L 795 154 L 798 159 L 807 169 L 812 173 L 815 174 L 823 174 L 826 173 L 829 171 L 832 167 L 833 164 L 833 157 L 832 154 L 798 115 L 811 104 L 813 101 L 817 99 L 825 91 L 827 88 L 828 81 L 827 77 L 825 74 L 820 70 L 817 69 L 811 69 L 807 70 L 804 72 L 774 101 L 772 98 L 771 78 L 771 38 L 769 32 L 766 29 L 762 28 L 759 26 L 757 26 Z"/>
    <path d="M 325 26 L 318 30 L 316 33 L 314 38 L 314 48 L 318 55 L 324 59 L 329 60 L 335 60 L 340 58 L 347 51 L 348 49 L 348 37 L 345 32 L 340 27 L 338 26 Z"/>
    <path d="M 167 26 L 165 28 L 163 28 L 158 33 L 156 37 L 156 50 L 157 52 L 163 58 L 170 60 L 177 60 L 181 59 L 188 52 L 190 48 L 190 39 L 188 33 L 183 28 L 179 26 Z"/>
    <path d="M 1572 25 L 1556 25 L 1552 26 L 1542 31 L 1534 39 L 1532 44 L 1530 46 L 1527 56 L 1525 87 L 1522 88 L 1518 88 L 1512 94 L 1512 105 L 1513 107 L 1518 111 L 1526 111 L 1528 113 L 1527 119 L 1529 172 L 1531 179 L 1537 183 L 1541 184 L 1546 184 L 1550 183 L 1557 174 L 1557 152 L 1555 126 L 1555 113 L 1557 111 L 1565 111 L 1573 109 L 1576 106 L 1578 101 L 1578 95 L 1573 88 L 1570 87 L 1556 86 L 1554 80 L 1554 65 L 1557 57 L 1560 54 L 1564 52 L 1576 52 L 1580 50 L 1584 46 L 1585 43 L 1585 37 L 1581 29 L 1576 26 Z"/>
    <path d="M 587 25 L 573 22 L 550 22 L 525 24 L 519 27 L 515 31 L 513 37 L 513 48 L 516 110 L 518 121 L 518 143 L 519 163 L 520 169 L 522 173 L 527 178 L 531 180 L 579 178 L 585 177 L 589 175 L 593 175 L 596 173 L 599 173 L 602 171 L 605 171 L 608 169 L 609 167 L 613 165 L 619 159 L 623 154 L 623 152 L 625 149 L 625 146 L 627 144 L 628 140 L 628 125 L 627 118 L 625 115 L 625 112 L 621 106 L 614 99 L 604 94 L 603 91 L 609 85 L 610 82 L 612 80 L 613 78 L 613 74 L 615 70 L 615 57 L 613 54 L 613 49 L 611 47 L 611 45 L 609 43 L 608 40 L 603 34 L 596 29 L 592 27 L 590 27 Z M 551 112 L 573 111 L 585 114 L 590 118 L 594 124 L 594 136 L 587 144 L 582 147 L 558 150 L 552 149 L 551 144 L 550 127 Z M 546 54 L 549 51 L 567 51 L 573 53 L 576 55 L 581 60 L 582 62 L 582 74 L 574 82 L 569 84 L 550 85 L 548 83 Z"/>
    <path d="M 1222 20 L 1181 20 L 1172 22 L 1166 28 L 1164 32 L 1164 70 L 1166 91 L 1166 117 L 1168 141 L 1168 167 L 1171 173 L 1174 176 L 1179 179 L 1191 179 L 1195 177 L 1199 173 L 1201 169 L 1200 126 L 1202 124 L 1222 123 L 1231 121 L 1242 117 L 1248 113 L 1259 103 L 1262 99 L 1262 97 L 1264 95 L 1267 86 L 1268 80 L 1268 63 L 1267 57 L 1265 54 L 1265 51 L 1264 48 L 1262 46 L 1262 44 L 1259 40 L 1247 29 L 1238 24 L 1235 24 L 1232 22 Z M 1198 51 L 1213 50 L 1219 51 L 1224 53 L 1230 58 L 1234 64 L 1235 68 L 1235 76 L 1234 80 L 1228 88 L 1222 92 L 1211 94 L 1201 94 L 1199 92 L 1198 88 L 1199 85 L 1197 62 L 1197 53 Z"/>
    <path d="M 127 21 L 125 20 L 103 20 L 87 22 L 70 22 L 60 24 L 45 24 L 31 25 L 28 26 L 22 31 L 20 35 L 20 47 L 22 49 L 22 51 L 27 55 L 29 55 L 31 57 L 47 55 L 62 55 L 73 53 L 89 54 L 88 58 L 86 60 L 85 63 L 82 66 L 79 72 L 77 74 L 76 78 L 72 83 L 72 85 L 66 93 L 66 95 L 62 100 L 62 102 L 55 112 L 52 119 L 50 121 L 48 126 L 46 128 L 42 136 L 38 141 L 38 143 L 36 145 L 36 147 L 32 152 L 32 154 L 30 156 L 29 161 L 30 169 L 34 176 L 37 178 L 40 179 L 60 179 L 71 177 L 85 177 L 94 175 L 109 175 L 121 173 L 133 173 L 137 171 L 142 167 L 145 161 L 145 153 L 143 150 L 143 148 L 138 143 L 136 142 L 106 143 L 93 144 L 81 146 L 75 144 L 77 142 L 77 140 L 80 136 L 81 133 L 83 131 L 85 126 L 88 123 L 88 121 L 93 114 L 93 112 L 97 107 L 99 102 L 101 100 L 102 96 L 104 95 L 109 85 L 111 83 L 112 80 L 115 77 L 125 57 L 130 51 L 132 47 L 135 38 L 135 33 L 133 30 L 132 26 Z"/>
  </g>
</svg>
