<?xml version="1.0" encoding="UTF-8"?>
<svg xmlns="http://www.w3.org/2000/svg" width="1952" height="602" viewBox="0 0 1952 602">
  <path d="M 370.0 25.0 L 349.0 21.0 L 314.0 20.0 L 313.0 21.0 L 279.0 22.0 L 251.0 26.0 L 229.0 31.0 L 201.0 41.0 L 183.0 50.0 L 163.0 63.0 L 153.0 71.0 L 136.0 88.0 L 125.0 102.0 L 118.0 113.0 L 103.0 145.0 L 94.0 177.0 L 88.0 215.0 L 87.0 276.0 L 76.0 278.0 L 35.0 279.0 L 29.0 282.0 L 24.0 289.0 L 20.0 309.0 L 20.0 327.0 L 23.0 348.0 L 29.0 364.0 L 33.0 368.0 L 39.0 371.0 L 81.0 371.0 L 82.0 370.0 L 93.0 370.0 L 94.0 371.0 L 96.0 395.0 L 109.0 480.0 L 124.0 550.0 L 131.0 566.0 L 138.0 573.0 L 147.0 578.0 L 164.0 581.0 L 174.0 581.0 L 195.0 578.0 L 204.0 575.0 L 215.0 569.0 L 222.0 561.0 L 224.0 556.0 L 225.0 541.0 L 199.0 418.0 L 191.0 366.0 L 194.0 364.0 L 245.0 358.0 L 276.0 351.0 L 283.0 346.0 L 287.0 337.0 L 288.0 329.0 L 288.0 309.0 L 285.0 286.0 L 280.0 270.0 L 276.0 264.0 L 267.0 260.0 L 259.0 260.0 L 189.0 270.0 L 181.0 269.0 L 180.0 260.0 L 181.0 221.0 L 184.0 204.0 L 190.0 186.0 L 201.0 167.0 L 217.0 151.0 L 230.0 142.0 L 249.0 133.0 L 262.0 129.0 L 279.0 126.0 L 295.0 126.0 L 296.0 125.0 L 355.0 126.0 L 369.0 121.0 L 376.0 114.0 L 383.0 99.0 L 387.0 84.0 L 389.0 65.0 L 388.0 49.0 L 386.0 40.0 L 379.0 30.0 Z
M 1124.0 179.0 L 1109.0 166.0 L 1093.0 159.0 L 1079.0 156.0 L 1055.0 157.0 L 1030.0 165.0 L 1009.0 179.0 L 991.0 198.0 L 983.0 209.0 L 976.0 222.0 L 974.0 222.0 L 959.0 206.0 L 943.0 197.0 L 932.0 194.0 L 912.0 193.0 L 899.0 195.0 L 884.0 200.0 L 869.0 208.0 L 858.0 216.0 L 839.0 235.0 L 824.0 256.0 L 818.0 267.0 L 815.0 266.0 L 813.0 244.0 L 810.0 240.0 L 804.0 238.0 L 755.0 244.0 L 746.0 246.0 L 741.0 249.0 L 737.0 260.0 L 737.0 308.0 L 738.0 309.0 L 738.0 323.0 L 741.0 354.0 L 746.0 386.0 L 758.0 436.0 L 771.0 472.0 L 783.0 497.0 L 788.0 502.0 L 794.0 504.0 L 812.0 503.0 L 842.0 497.0 L 864.0 490.0 L 870.0 487.0 L 874.0 482.0 L 873.0 472.0 L 861.0 447.0 L 849.0 413.0 L 845.0 396.0 L 842.0 370.0 L 843.0 345.0 L 849.0 322.0 L 857.0 308.0 L 864.0 301.0 L 874.0 296.0 L 884.0 295.0 L 895.0 299.0 L 902.0 305.0 L 910.0 318.0 L 915.0 334.0 L 919.0 355.0 L 921.0 390.0 L 922.0 391.0 L 923.0 429.0 L 925.0 438.0 L 931.0 443.0 L 945.0 443.0 L 980.0 438.0 L 1001.0 433.0 L 1006.0 427.0 L 1008.0 418.0 L 1008.0 392.0 L 1007.0 391.0 L 1007.0 367.0 L 1006.0 366.0 L 1006.0 312.0 L 1008.0 299.0 L 1012.0 286.0 L 1019.0 274.0 L 1027.0 266.0 L 1038.0 261.0 L 1051.0 261.0 L 1060.0 266.0 L 1064.0 270.0 L 1072.0 283.0 L 1077.0 301.0 L 1080.0 327.0 L 1080.0 360.0 L 1079.0 361.0 L 1078.0 388.0 L 1073.0 428.0 L 1075.0 433.0 L 1078.0 436.0 L 1085.0 438.0 L 1107.0 440.0 L 1114.0 442.0 L 1140.0 444.0 L 1147.0 442.0 L 1151.0 438.0 L 1155.0 429.0 L 1161.0 389.0 L 1162.0 363.0 L 1163.0 362.0 L 1163.0 319.0 L 1162.0 318.0 L 1161.0 291.0 L 1157.0 262.0 L 1149.0 228.0 L 1137.0 198.0 Z
M 429.0 213.0 L 396.0 221.0 L 373.0 232.0 L 349.0 250.0 L 331.0 270.0 L 320.0 287.0 L 312.0 303.0 L 303.0 331.0 L 299.0 358.0 L 299.0 383.0 L 301.0 402.0 L 305.0 422.0 L 310.0 438.0 L 324.0 468.0 L 341.0 492.0 L 363.0 513.0 L 381.0 525.0 L 400.0 534.0 L 417.0 540.0 L 444.0 545.0 L 473.0 544.0 L 484.0 542.0 L 502.0 536.0 L 519.0 527.0 L 530.0 519.0 L 543.0 506.0 L 550.0 496.0 L 558.0 477.0 L 557.0 465.0 L 554.0 461.0 L 545.0 455.0 L 511.0 438.0 L 504.0 436.0 L 495.0 437.0 L 481.0 451.0 L 469.0 458.0 L 458.0 461.0 L 446.0 461.0 L 437.0 459.0 L 424.0 453.0 L 414.0 446.0 L 401.0 433.0 L 395.0 424.0 L 393.0 417.0 L 402.0 415.0 L 433.0 414.0 L 466.0 408.0 L 493.0 399.0 L 520.0 384.0 L 537.0 368.0 L 543.0 360.0 L 551.0 345.0 L 556.0 327.0 L 557.0 318.0 L 556.0 297.0 L 551.0 278.0 L 543.0 261.0 L 536.0 251.0 L 523.0 238.0 L 515.0 232.0 L 494.0 221.0 L 478.0 216.0 L 462.0 213.0 Z
M 1778.0 38.0 L 1769.0 40.0 L 1764.0 43.0 L 1760.0 49.0 L 1757.0 60.0 L 1750.0 123.0 L 1746.0 197.0 L 1745.0 198.0 L 1734.0 198.0 L 1733.0 197.0 L 1715.0 197.0 L 1700.0 195.0 L 1675.0 196.0 L 1669.0 202.0 L 1665.0 214.0 L 1663.0 228.0 L 1663.0 246.0 L 1665.0 256.0 L 1668.0 263.0 L 1675.0 268.0 L 1701.0 274.0 L 1739.0 278.0 L 1744.0 280.0 L 1743.0 337.0 L 1742.0 338.0 L 1742.0 437.0 L 1743.0 438.0 L 1743.0 454.0 L 1745.0 471.0 L 1753.0 505.0 L 1765.0 531.0 L 1775.0 545.0 L 1786.0 556.0 L 1800.0 566.0 L 1816.0 574.0 L 1833.0 579.0 L 1844.0 579.0 L 1849.0 577.0 L 1853.0 573.0 L 1858.0 563.0 L 1865.0 535.0 L 1868.0 507.0 L 1865.0 498.0 L 1853.0 485.0 L 1845.0 470.0 L 1839.0 452.0 L 1836.0 435.0 L 1835.0 410.0 L 1834.0 409.0 L 1834.0 339.0 L 1835.0 338.0 L 1835.0 313.0 L 1836.0 312.0 L 1837.0 285.0 L 1838.0 284.0 L 1917.0 285.0 L 1922.0 283.0 L 1927.0 279.0 L 1931.0 268.0 L 1931.0 236.0 L 1927.0 215.0 L 1925.0 211.0 L 1917.0 205.0 L 1900.0 203.0 L 1863.0 203.0 L 1862.0 202.0 L 1840.0 202.0 L 1839.0 201.0 L 1839.0 159.0 L 1840.0 158.0 L 1840.0 131.0 L 1841.0 130.0 L 1841.0 104.0 L 1842.0 103.0 L 1842.0 81.0 L 1840.0 73.0 L 1834.0 62.0 L 1820.0 50.0 L 1805.0 43.0 L 1789.0 39.0 Z
M 1259.0 217.0 L 1234.0 231.0 L 1213.0 249.0 L 1202.0 262.0 L 1191.0 279.0 L 1180.0 306.0 L 1177.0 318.0 L 1174.0 342.0 L 1175.0 373.0 L 1181.0 403.0 L 1187.0 421.0 L 1197.0 442.0 L 1215.0 468.0 L 1240.0 492.0 L 1260.0 505.0 L 1276.0 513.0 L 1295.0 520.0 L 1329.0 527.0 L 1358.0 528.0 L 1389.0 524.0 L 1406.0 519.0 L 1416.0 514.0 L 1423.0 508.0 L 1425.0 504.0 L 1426.0 484.0 L 1422.0 464.0 L 1418.0 452.0 L 1410.0 440.0 L 1401.0 438.0 L 1381.0 444.0 L 1364.0 447.0 L 1331.0 446.0 L 1317.0 442.0 L 1301.0 434.0 L 1281.0 416.0 L 1275.0 407.0 L 1276.0 403.0 L 1303.0 400.0 L 1322.0 396.0 L 1356.0 384.0 L 1374.0 374.0 L 1394.0 357.0 L 1407.0 338.0 L 1413.0 322.0 L 1415.0 312.0 L 1414.0 282.0 L 1410.0 267.0 L 1403.0 252.0 L 1392.0 237.0 L 1377.0 224.0 L 1363.0 216.0 L 1338.0 208.0 L 1323.0 206.0 L 1301.0 206.0 L 1275.0 211.0 Z
M 1450.0 248.0 L 1447.0 255.0 L 1443.0 281.0 L 1442.0 307.0 L 1441.0 308.0 L 1441.0 371.0 L 1442.0 372.0 L 1442.0 387.0 L 1445.0 417.0 L 1451.0 456.0 L 1462.0 502.0 L 1471.0 527.0 L 1478.0 533.0 L 1492.0 533.0 L 1537.0 524.0 L 1546.0 521.0 L 1552.0 517.0 L 1554.0 513.0 L 1554.0 506.0 L 1542.0 466.0 L 1536.0 431.0 L 1535.0 399.0 L 1537.0 384.0 L 1545.0 363.0 L 1553.0 353.0 L 1561.0 347.0 L 1569.0 344.0 L 1584.0 343.0 L 1598.0 349.0 L 1609.0 360.0 L 1618.0 377.0 L 1624.0 398.0 L 1628.0 431.0 L 1628.0 461.0 L 1624.0 496.0 L 1617.0 527.0 L 1618.0 535.0 L 1620.0 538.0 L 1624.0 540.0 L 1652.0 547.0 L 1682.0 552.0 L 1687.0 552.0 L 1694.0 549.0 L 1699.0 540.0 L 1702.0 528.0 L 1708.0 489.0 L 1709.0 463.0 L 1710.0 462.0 L 1709.0 412.0 L 1704.0 374.0 L 1698.0 348.0 L 1687.0 318.0 L 1674.0 296.0 L 1659.0 281.0 L 1648.0 273.0 L 1631.0 265.0 L 1610.0 260.0 L 1587.0 260.0 L 1565.0 265.0 L 1548.0 273.0 L 1534.0 283.0 L 1525.0 292.0 L 1522.0 291.0 L 1522.0 281.0 L 1525.0 254.0 L 1521.0 248.0 L 1478.0 243.0 L 1456.0 243.0 Z
M 777.0 147.0 L 761.0 140.0 L 744.0 137.0 L 725.0 137.0 L 704.0 141.0 L 680.0 151.0 L 664.0 162.0 L 645.0 181.0 L 637.0 193.0 L 633.0 192.0 L 622.0 171.0 L 613.0 159.0 L 606.0 152.0 L 603.0 151.0 L 594.0 151.0 L 579.0 158.0 L 563.0 168.0 L 549.0 180.0 L 548.0 188.0 L 562.0 219.0 L 570.0 251.0 L 575.0 286.0 L 582.0 366.0 L 588.0 413.0 L 594.0 446.0 L 598.0 455.0 L 603.0 459.0 L 630.0 460.0 L 631.0 459.0 L 657.0 458.0 L 691.0 453.0 L 697.0 449.0 L 699.0 445.0 L 699.0 440.0 L 680.0 382.0 L 670.0 336.0 L 667.0 309.0 L 667.0 285.0 L 671.0 259.0 L 681.0 237.0 L 689.0 228.0 L 704.0 219.0 L 711.0 217.0 L 726.0 216.0 L 742.0 219.0 L 755.0 225.0 L 765.0 225.0 L 774.0 220.0 L 782.0 212.0 L 792.0 192.0 L 794.0 184.0 L 794.0 170.0 L 792.0 163.0 L 788.0 156.0 Z
M 942.0 61.0 L 924.0 60.0 L 910.0 63.0 L 897.0 68.0 L 891.0 72.0 L 886.0 81.0 L 887.0 91.0 L 896.0 131.0 L 902.0 144.0 L 909.0 148.0 L 923.0 148.0 L 949.0 144.0 L 955.0 141.0 L 957.0 138.0 L 958.0 111.0 L 954.0 74.0 L 952.0 69.0 L 946.0 63.0 Z
M 475.0 300.0 L 477.0 306.0 L 476.0 321.0 L 473.0 327.0 L 467.0 334.0 L 455.0 341.0 L 438.0 346.0 L 425.0 348.0 L 392.0 349.0 L 380.0 347.0 L 380.0 340.0 L 383.0 324.0 L 390.0 309.0 L 404.0 293.0 L 417.0 285.0 L 433.0 281.0 L 443.0 281.0 L 453.0 283.0 L 465.0 289.0 Z
M 1029.0 53.0 L 1022.0 59.0 L 1020.0 63.0 L 1021.0 109.0 L 1022.0 110.0 L 1022.0 123.0 L 1024.0 130.0 L 1028.0 134.0 L 1033.0 136.0 L 1061.0 136.0 L 1073.0 133.0 L 1079.0 127.0 L 1081.0 119.0 L 1084.0 88.0 L 1084.0 71.0 L 1085.0 70.0 L 1083.0 61.0 L 1077.0 56.0 L 1060.0 51.0 L 1044.0 50.0 Z
M 1340.0 291.0 L 1342.0 297.0 L 1342.0 309.0 L 1340.0 315.0 L 1336.0 321.0 L 1324.0 331.0 L 1312.0 336.0 L 1291.0 341.0 L 1271.0 343.0 L 1256.0 343.0 L 1254.0 341.0 L 1254.0 322.0 L 1257.0 311.0 L 1266.0 295.0 L 1276.0 285.0 L 1282.0 281.0 L 1296.0 275.0 L 1302.0 274.0 L 1318.0 275.0 L 1331.0 281.0 Z" fill="#f1cf76" fill-rule="evenodd"/>
</svg>
