<svg width="162" height="162" fill="none" xmlns="http://www.w3.org/2000/svg">
  <path fill-rule="evenodd" clip-rule="evenodd" d="M108.029 88.682c-10.809 0-19.652 8.844-19.652 19.652l-.022-.022v47.449a3.41 3.41 0 0 1-3.407 3.406h-8.624a3.41 3.41 0 0 1-3.407-3.406v-47.449c0-10.808-8.843-19.651-19.652-19.673H6.406A3.41 3.41 0 0 1 3 85.232v-8.035a3.41 3.41 0 0 1 3.406-3.406H53.31c10.809 0 19.652-8.844 19.63-19.652V6.406A3.41 3.41 0 0 1 76.345 3h8.625a3.41 3.41 0 0 1 3.407 3.406v47.755c0 10.808 8.843 19.651 19.652 19.651l46.553.022h.022a3.41 3.41 0 0 1 3.406 3.407v8.035a3.41 3.41 0 0 1-3.406 3.406h-46.575Zm38.058 45.68H145.388c-6.529 0-11.857 5.284-11.857 11.857v.677c0 6.747 5.459 12.206 12.206 12.206s12.206-5.459 12.206-12.206v-.677c0-6.529-5.284-11.857-11.856-11.857Z" fill="#1F1F1F"/>
</svg>
