<svg width="12" height="12" viewBox="0 0 12 12" fill="none" xmlns="http://www.w3.org/2000/svg">
<path d="M7.82585 6.37248C7.42338 6.37248 7.07308 6.52154 6.77495 6.81967C6.49173 7.10289 6.35012 7.44574 6.35012 7.84821V11.381C6.35012 11.4556 6.3203 11.5152 6.26068 11.5599C6.21596 11.6046 6.16379 11.627 6.10416 11.627H5.45573C5.3812 11.627 5.32158 11.6046 5.27686 11.5599C5.23214 11.5152 5.20978 11.4556 5.20978 11.381V7.84821C5.20978 7.44574 5.06072 7.10289 4.76259 6.81967C4.47937 6.52154 4.13652 6.37248 3.73405 6.37248H0.245955C0.171423 6.37248 0.111798 6.35012 0.0670787 6.3054C0.0223596 6.26068 0 6.20105 0 6.12652V5.52281C0 5.46319 0.0223596 5.41102 0.0670787 5.3663C0.111798 5.30667 0.171423 5.27686 0.245955 5.27686H3.73405C4.13652 5.27686 4.47937 5.13525 4.76259 4.85203C5.06072 4.56881 5.20978 4.21851 5.20978 3.80113V0.245955C5.20978 0.171423 5.23214 0.111798 5.27686 0.0670792C5.32158 0.0223597 5.3812 0 5.45573 0H6.10416C6.17869 0 6.23832 0.0223597 6.28304 0.0670792C6.32776 0.111798 6.35012 0.171423 6.35012 0.245955V3.80113C6.35012 4.2036 6.49173 4.5539 6.77495 4.85203C7.07308 5.13525 7.42338 5.27686 7.82585 5.27686H11.2916C11.3661 5.27686 11.4257 5.30667 11.4705 5.3663C11.5301 5.41102 11.5599 5.46319 11.5599 5.52281V6.12652C11.5599 6.20105 11.5301 6.26068 11.4705 6.3054C11.4257 6.35012 11.3661 6.37248 11.2916 6.37248H7.82585Z" fill="black"/>
</svg>
